<svg width="250" height="86" viewBox="0 0 250 86" fill="none" xmlns="http://www.w3.org/2000/svg">
<path d="M99.36 61V42.03L108.32 33.42L127.5 61H135.48L113.15 28.73L134.08 8.5H125.26L106.92 25.65C102.09 30.2 100.27 32.16 98.8 35.87L97.05 35.45C98.66 31.6 99.36 28.73 99.36 24.53V8.5H92.22V61H99.36ZM136.689 44.9C136.689 55.54 143.339 61.7 154.399 61.7C165.319 61.7 172.109 55.54 172.109 44.9C172.109 34.33 165.319 28.1 154.399 28.1C143.339 28.1 136.689 34.33 136.689 44.9ZM143.059 44.9C143.059 37.41 147.189 33.56 154.399 33.56C161.609 33.56 165.739 37.41 165.739 44.9C165.739 52.39 161.609 56.24 154.399 56.24C147.189 56.24 143.059 52.39 143.059 44.9ZM187.669 34.12C193.129 34.12 196.419 34.12 200.269 32.79L200.759 34.47C196.699 36.36 194.249 38.46 191.379 40.91L174.999 55.4V61H208.179V55.68H195.509C190.049 55.68 186.619 55.68 182.909 57.01L182.419 55.26C186.339 53.37 188.929 51.34 191.799 48.89L208.179 34.4V28.8H174.999V34.12H187.669ZM210.791 44.9C210.791 55.54 217.441 61.7 228.501 61.7C239.421 61.7 246.211 55.54 246.211 44.9C246.211 34.33 239.421 28.1 228.501 28.1C217.441 28.1 210.791 34.33 210.791 44.9ZM217.161 44.9C217.161 37.41 221.291 33.56 228.501 33.56C235.711 33.56 239.841 37.41 239.841 44.9C239.841 52.39 235.711 56.24 228.501 56.24C221.291 56.24 217.161 52.39 217.161 44.9Z" fill="black"/>
<rect x="49" width="24" height="22" fill="#61FF00"/>
<path d="M25 22H49V44L8 56L25 22Z" fill="#61FF00"/>
<rect width="24" height="22" fill="#61FF00"/>
<rect x="49" y="44" width="24" height="22" fill="#61FF00"/>
</svg>
